<svg width="85" height="30" viewBox="0 0 85 30" fill="none" xmlns="http://www.w3.org/2000/svg">
<path fill-rule="evenodd" clip-rule="evenodd" d="M79.7342 11.719C79.7342 10.828 80.4372 10.078 81.3282 10.078C82.2182 10.078 82.9222 10.828 82.9222 11.718C82.9222 12.609 82.2192 13.359 81.3282 13.359C80.4382 13.406 79.7342 12.656 79.7342 11.719ZM81.2812 13.031C81.9372 13.031 82.5002 12.469 82.5002 11.766C82.5002 11.062 81.9372 10.5 81.2812 10.5C80.6252 10.5 80.0622 11.062 80.0622 11.765C80.0622 12.469 80.6252 13.031 81.2822 13.031H81.2812ZM81.0942 12.469H80.7652V11.015H81.3752C81.5152 11.015 81.6562 11.015 81.7502 11.109C81.8902 11.203 81.9372 11.344 81.9372 11.484C81.9372 11.672 81.8442 11.812 81.7032 11.859L81.9842 12.515H81.5152L81.2822 11.953H81.0482V12.469H81.0952H81.0942ZM81.0942 11.625H81.2812C81.3752 11.625 81.4212 11.625 81.4692 11.578C81.5152 11.531 81.5622 11.484 81.5622 11.39C81.5622 11.344 81.5162 11.25 81.4692 11.25C81.4222 11.203 81.3282 11.203 81.2812 11.203H81.0942V11.625ZM57.0002 0.609L56.5782 3.469C55.6402 2.953 54.9382 2.765 54.1882 2.765C52.2182 2.765 50.8122 4.781 50.8122 7.641C50.8122 9.609 51.7502 10.828 53.2972 10.828C53.9532 10.828 54.6572 10.594 55.5472 10.172L55.0782 13.172C54.0942 13.453 53.4842 13.547 52.7342 13.547C49.8742 13.547 48.0942 11.391 48.0942 7.922C48.0942 3.234 50.5312 0 54.0942 0C54.5622 0 54.9372 0.047 55.3122 0.14L56.4372 0.422C56.6722 0.516 56.7652 0.516 57.0002 0.609ZM48.1412 2.578C48.0472 2.531 47.9532 2.531 47.8592 2.531C47.0162 2.531 46.4992 3 45.6562 4.266L45.8902 2.672H43.5472L41.9072 13.266H44.5782C45.5622 6.75 45.7972 5.672 47.0622 5.672H47.2502C47.4842 4.406 47.8122 3.469 48.2812 2.578H48.1412ZM32.2502 13.125C31.5472 13.359 30.9372 13.5 30.3282 13.5C28.9682 13.5 28.2182 12.703 28.2182 11.156C28.2182 10.875 28.2652 10.546 28.3122 10.172L28.5002 9.141L28.6402 8.297L29.8122 1.078H32.4372L32.1092 2.625H33.4692L33.0932 5.203H31.7332L31.0302 9.609C30.9832 9.797 30.9832 9.937 30.9832 10.031C30.9832 10.594 31.2652 10.828 31.8732 10.828C32.2022 10.828 32.3902 10.781 32.5772 10.734L32.2492 13.124L32.2502 13.125ZM21.7972 6C21.7972 7.36 22.4072 8.25 23.8122 8.953C24.8902 9.469 25.0782 9.656 25.0782 10.125C25.0782 10.781 24.6092 11.109 23.5782 11.109C22.7812 11.109 22.0782 10.969 21.1882 10.687L20.8122 13.125L20.9532 13.172L21.4222 13.266C21.6092 13.312 21.7972 13.359 22.1252 13.359C22.7352 13.406 23.2502 13.453 23.5782 13.453C26.3912 13.453 27.6562 12.328 27.6562 9.937C27.6562 8.484 27.1412 7.641 25.7812 6.984C24.6562 6.469 24.5622 6.328 24.5622 5.812C24.5622 5.25 24.9842 4.969 25.8752 4.969C26.3902 4.969 27.0942 5.062 27.7972 5.156L28.1722 2.719C27.4692 2.578 26.4372 2.484 25.8282 2.484C22.7812 2.437 21.7502 4.031 21.7972 6ZM78.1872 13.266H75.6572L75.7972 12.234C75.0942 13.031 74.2972 13.406 73.3592 13.406C71.3902 13.406 70.1252 11.672 70.1252 9C70.1252 5.484 72.0942 2.484 74.4372 2.484C75.4692 2.484 76.2192 2.953 76.9692 3.937L77.5312 0.187H80.1562L78.1872 13.266ZM74.2502 10.781C75.5162 10.781 76.3602 9.328 76.3602 7.219C76.3602 5.859 75.8442 5.109 74.9532 5.109C73.7342 5.109 72.8902 6.609 72.8902 8.672C72.8902 10.032 73.3602 10.782 74.2502 10.782V10.781ZM40.6872 13.031C39.7972 13.312 38.9072 13.453 37.9692 13.453C35.0162 13.453 33.4692 11.813 33.4692 8.672C33.4692 5.016 35.4372 2.344 38.1092 2.344C40.3122 2.344 41.6722 3.844 41.6722 6.234C41.6722 6.984 41.5782 7.781 41.3442 8.859H36.0002C35.9532 9.047 35.9532 9.094 35.9532 9.187C35.9532 10.453 36.7502 11.062 38.2972 11.062C39.2342 11.062 40.0782 10.828 41.0622 10.406L40.6872 13.031ZM39.1872 6.703C39.2342 6.469 39.2342 6.281 39.2342 6.187C39.2342 5.344 38.7662 4.828 37.9692 4.828C37.1252 4.828 36.5162 5.484 36.2812 6.75H39.1872V6.703ZM11.1092 13.266H8.48424L9.98424 3.234L6.56324 13.265H4.78324L4.54824 3.281L2.95324 13.266H0.469238L2.53124 0.233H6.32824L6.46824 8.296L9.04824 0.233H13.1732L11.1102 13.264L11.1092 13.266ZM17.9532 8.531C17.6722 8.484 17.5312 8.484 17.3432 8.484C15.8432 8.484 15.0932 9.047 15.0932 10.078C15.0932 10.734 15.4692 11.156 16.0782 11.156C17.1092 11.203 17.9062 10.078 17.9532 8.531ZM19.8752 13.266H17.6722L17.7192 12.14C17.0622 13.031 16.1722 13.406 14.9062 13.406C13.4532 13.406 12.4692 12.234 12.4692 10.5C12.4692 7.922 14.2032 6.422 17.1562 6.422C17.4842 6.422 17.8592 6.469 18.2342 6.515C18.3282 6.14 18.3282 6 18.3282 5.812C18.3282 5.109 17.8592 4.828 16.6402 4.828C15.8902 4.828 15.0472 4.968 14.4372 5.156L14.1092 5.296L13.8752 5.391L14.2502 3C15.5622 2.578 16.4532 2.437 17.4372 2.437C19.7342 2.437 20.9072 3.516 20.9072 5.531C20.9072 6.047 20.8592 6.421 20.6722 7.641L20.1092 11.391L20.0162 12.047L19.9692 12.609L19.9222 12.984L19.8752 13.265V13.266ZM61.5932 8.531C61.3132 8.484 61.1722 8.484 60.9842 8.484C59.4842 8.484 58.6872 9.047 58.6872 10.078C58.6872 10.734 59.0622 11.156 59.6722 11.156C60.7502 11.203 61.5472 10.078 61.5942 8.531H61.5932ZM63.5152 13.266H61.3132L61.3602 12.14C60.7042 13.031 59.8132 13.406 58.5482 13.406C57.0952 13.406 56.1102 12.234 56.1102 10.5C56.1102 7.922 57.8452 6.422 60.7982 6.422C61.0792 6.422 61.5012 6.469 61.8762 6.515C61.9702 6.14 61.9702 6 61.9702 5.812C61.9702 5.109 61.5002 4.828 60.2822 4.828C59.5322 4.828 58.6882 4.968 58.0792 5.156L57.7042 5.25L57.4702 5.344L57.8432 2.953C59.1552 2.531 60.0462 2.39 61.0302 2.39C63.3272 2.39 64.4992 3.469 64.4992 5.484C64.4992 6 64.4522 6.374 64.2652 7.594L63.7022 11.344L63.6082 12L63.5152 12.515L63.4682 12.891L63.5152 13.265V13.266ZM70.9222 2.578C70.8282 2.531 70.7342 2.531 70.6412 2.531C69.7972 2.531 69.2812 3 68.4372 4.266L68.6722 2.672H66.2822L64.6412 13.266H67.3122C68.2972 6.75 68.5322 5.672 69.7972 5.672H69.9842C70.2192 4.406 70.5472 3.469 71.0152 2.578H70.9222Z" fill="#F2F3F4"/>
<path fill-rule="evenodd" clip-rule="evenodd" d="M59.7659 23.578C59.7659 25.968 59.0159 27.422 57.8439 27.422C56.9999 27.469 56.4839 26.484 56.4839 25.078C56.4839 23.39 57.2339 21.468 58.4529 21.468C59.4369 21.422 59.7659 22.453 59.7659 23.578ZM62.3899 23.578C62.3899 20.906 61.0779 18.797 58.5939 18.797C55.7339 18.797 53.8589 21.328 53.8589 25.031C53.8589 27.703 54.9839 29.906 57.6559 29.906C60.4219 29.953 62.3899 28.031 62.3899 23.578Z" fill="#D1D7E5"/>
<path fill-rule="evenodd" clip-rule="evenodd" d="M54.75 16.969L54.328 19.828C53.438 19.312 52.828 19.125 52.125 19.125C50.297 19.125 48.985 21.14 48.985 24C48.985 25.969 49.828 27.187 51.281 27.187C51.891 27.187 52.594 26.953 53.391 26.531L52.969 29.531C52.078 29.812 51.469 29.906 50.766 29.906C48.094 29.906 46.406 27.75 46.406 24.281C46.406 19.594 48.703 16.359 52.031 16.359C52.453 16.359 52.828 16.406 53.156 16.499L54.187 16.781C54.422 16.828 54.515 16.875 54.75 16.969ZM38.297 18.891C38.203 18.844 38.109 18.844 38.015 18.844C37.219 18.844 36.75 19.312 35.953 20.578L36.187 18.984H33.937L32.437 29.578H34.922C35.859 23.109 36.094 21.984 37.265 21.984C37.359 21.984 37.359 21.984 37.453 22.031C37.687 20.766 37.969 19.828 38.391 18.937L38.297 18.89V18.891ZM70.734 29.484H68.39L68.531 28.453C67.875 29.25 67.125 29.625 66.234 29.625C64.453 29.625 63.234 27.89 63.234 25.219C63.234 21.703 65.109 18.703 67.266 18.703C68.25 18.703 68.953 19.172 69.656 20.156L70.219 16.406H72.656L70.734 29.484ZM67.031 27C68.203 27 69 25.547 69 23.437C69 22.078 68.531 21.375 67.687 21.375C66.562 21.375 65.766 22.828 65.766 24.937C65.766 26.297 66.187 27 67.031 27ZM15.047 29.437C14.203 29.719 13.407 29.859 12.516 29.859C9.75 29.859 8.296 28.219 8.296 25.078C8.296 21.468 10.125 18.75 12.609 18.75C14.672 18.75 15.937 20.25 15.937 22.64C15.937 23.39 15.844 24.187 15.609 25.265H10.687C10.641 25.453 10.641 25.5 10.641 25.594C10.641 26.812 11.391 27.422 12.844 27.422C13.734 27.422 14.531 27.187 15.422 26.765L15.047 29.437ZM13.641 23.157C13.641 22.922 13.687 22.734 13.687 22.64C13.687 21.797 13.266 21.281 12.516 21.281C11.719 21.281 11.156 21.937 10.922 23.203H13.641V23.156V23.157ZM44.578 29.437C43.734 29.719 42.938 29.859 42.047 29.859C39.234 29.859 37.828 28.219 37.828 25.078C37.828 21.468 39.656 18.75 42.141 18.75C44.203 18.75 45.515 20.25 45.515 22.64C45.515 23.39 45.422 24.187 45.187 25.265H40.219C40.172 25.453 40.172 25.5 40.172 25.594C40.172 26.812 40.922 27.422 42.375 27.422C43.265 27.422 44.062 27.187 44.953 26.765L44.578 29.437ZM43.172 23.157C43.219 22.922 43.219 22.734 43.219 22.64C43.219 21.797 42.797 21.281 42.047 21.281C41.25 21.281 40.687 21.937 40.453 23.203H43.172V23.156V23.157ZM79.172 29.437C78.328 29.719 77.484 29.859 76.641 29.859C73.875 29.859 72.421 28.219 72.421 25.078C72.421 21.468 74.297 18.75 76.781 18.75C78.844 18.75 80.109 20.25 80.109 22.64C80.109 23.39 80.015 24.187 79.781 25.265H74.859C74.812 25.453 74.812 25.5 74.812 25.594C74.812 26.812 75.562 27.422 77.016 27.422C77.906 27.422 78.703 27.187 79.594 26.765L79.172 29.437ZM77.766 23.157C77.766 22.922 77.812 22.734 77.812 22.64C77.812 21.797 77.391 21.281 76.641 21.281C75.844 21.281 75.281 21.937 75.047 23.203H77.766V23.156V23.157ZM7.687 19.359C7.219 19.031 6.516 18.749 5.625 18.749C4.594 18.749 3.844 18.984 3.844 20.016C3.844 21.891 7.5 21.187 7.5 25.219C7.5 28.875 5.11 29.859 2.906 29.859C1.922 29.859 0.796 29.531 0 29.156L0.61 26.484C1.125 26.953 2.11 27.234 2.953 27.234C3.75 27.234 4.969 27 4.969 25.641C4.969 23.484 1.312 24.281 1.312 20.531C1.312 17.109 3.469 16.078 5.532 16.078C6.703 16.078 7.782 16.266 8.437 16.688L7.687 19.359ZM22.313 29.437C21.797 29.672 21.093 29.859 20.109 29.859C17.953 29.859 16.594 27.703 16.594 25.031C16.594 21.562 18.562 18.844 21.422 18.844C22.032 18.844 23.015 19.124 23.765 19.547L23.203 22.078C22.64 21.703 22.078 21.515 21.515 21.515C20.203 21.515 19.219 22.735 19.219 24.89C19.219 26.156 19.922 27.187 20.999 27.187C21.656 27.187 22.125 27.047 22.641 26.719L22.312 29.437H22.313ZM31.593 26.766C31.453 27.656 31.359 28.546 31.265 29.484H28.875L29.062 27.797H29.015C28.265 28.969 27.515 29.765 26.109 29.765C24.609 29.765 23.812 28.172 23.812 26.156C23.812 25.453 23.859 25.031 24 23.953L24.656 19.031H27.328L26.672 23.953C26.578 24.469 26.484 25.031 26.484 25.547C26.484 26.157 26.766 26.812 27.516 26.765C28.594 26.765 29.25 25.453 29.437 23.859L30.187 18.984H32.765L31.594 26.766H31.593ZM81.656 29.391H81.234V27.656H80.672V27.281H82.219V27.656H81.656V29.391ZM84.328 29.391H83.953V27.609L83.578 29.391H83.203L82.828 27.609V29.391H82.453V27.281H83.063L83.391 28.969H83.437L83.766 27.281H84.328V29.391Z" fill="#D1D7E5"/>
</svg>
