<svg width="71" height="10" viewBox="0 0 71 10" fill="none" xmlns="http://www.w3.org/2000/svg">
<path fill-rule="evenodd" clip-rule="evenodd" d="M62.9749 4.45613C62.5963 4.67288 62.0473 4.78026 61.295 4.78026H60.5496L61.1206 2.2439H61.6696C62.2937 2.2439 62.7495 2.32643 63.0641 2.49346C63.3095 2.62471 63.6001 2.8852 63.6001 3.37835C63.6001 3.97292 63.2615 4.29307 62.9749 4.45613V4.45613ZM18.4935 7.63975H12.7232L13.0959 5.98232H16.7153L17.1261 4.11411H13.5417L13.8883 2.47358H19.6486L18.4935 7.63975V7.63975ZM66.0835 1.0498C65.235 0.572551 63.9507 0.33194 62.2677 0.33194H57.8598L56.2209 7.63975H50.4456L50.8162 5.98232H54.2954L54.7092 4.12007L51.232 4.12504L51.6036 2.47457H55.187L55.6639 0.33194H48.3859L46.8301 7.26492H44.1614L45.7282 0.33194H41.9234L40.3676 7.26492H37.7639L39.3327 0.33194H35.5319L33.889 7.63975H28.0726L28.4393 5.98232H31.9345L32.3453 4.13101L28.856 4.12803L29.2267 2.47358H32.8492L33.324 0.33194H10.6505L9.3592 6.12351L6.78761 0.33194H2.84157L0.717773 9.78338H4.4865L5.7718 3.83273L8.26625 9.78338H21.7754L23.4173 2.47358H25.5311L23.8882 9.78338H59.4316L60.4605 5.16902L62.1294 9.78239H65.9002L64.1721 6.01314L64.5668 5.94355C65.4353 5.78944 66.1156 5.46034 66.5874 4.96718C67.0612 4.47005 67.3007 3.82975 67.3007 3.06218C67.3007 2.16734 66.904 1.51014 66.0835 1.0498V1.0498ZM69.19 8.66484L69.704 8.64296C69.8132 8.63899 69.8993 8.62606 69.9584 8.60419C70.0185 8.5843 70.0646 8.55248 70.0937 8.50973C70.1227 8.46698 70.1367 8.42224 70.1327 8.37451C70.1287 8.30293 70.0927 8.24725 70.0285 8.2035C69.9644 8.16075 69.8643 8.14384 69.73 8.14882L69.159 8.17268L69.19 8.66484V8.66484ZM69.0007 9.50499L68.9085 8.01757L69.712 7.98476C69.8723 7.9778 69.9945 7.98576 70.0806 8.00962C70.1668 8.03249 70.2359 8.07723 70.291 8.14285C70.3451 8.20847 70.3752 8.28105 70.3792 8.36258C70.3862 8.46797 70.3501 8.55845 70.272 8.63501C70.1928 8.71057 70.0676 8.76128 69.8963 8.78813C69.9604 8.81199 70.0105 8.83386 70.0446 8.85673C70.1177 8.90644 70.1878 8.96908 70.255 9.04564L70.5926 9.43738L70.295 9.4503L70.0366 9.15103C69.9604 9.06453 69.8983 8.99791 69.8502 8.95218C69.8031 8.90744 69.7601 8.87661 69.723 8.85872C69.6869 8.84181 69.6479 8.82988 69.6118 8.82392C69.5837 8.81994 69.5397 8.81994 69.4776 8.82193L69.2011 8.83386L69.2411 9.49504L69.0007 9.50499V9.50499Z" fill="#D1D7E5"/>
</svg>
