<svg width="100" height="30" viewBox="0 0 100 30" fill="none" xmlns="http://www.w3.org/2000/svg">
<path d="M48.552 13.596C48.815 13.772 49.209 13.903 49.604 13.903C50.218 13.903 50.569 13.596 50.569 13.113C50.569 12.675 50.306 12.456 49.692 12.193C48.946 11.93 48.464 11.535 48.464 10.877C48.464 10.175 49.078 9.649 49.955 9.649C50.438 9.649 50.745 9.737 50.964 9.869L50.788 10.351C50.657 10.263 50.35 10.131 49.911 10.131C49.297 10.131 49.034 10.526 49.034 10.833C49.034 11.272 49.297 11.491 49.955 11.71C50.745 12.017 51.095 12.368 51.095 13.07C51.095 13.772 50.569 14.386 49.516 14.386C49.078 14.386 48.596 14.254 48.332 14.079L48.552 13.596ZM52.324 12.763C52.324 13.553 52.85 13.903 53.464 13.903C53.903 13.903 54.166 13.816 54.385 13.728L54.473 14.166C54.253 14.254 53.903 14.386 53.376 14.386C52.368 14.386 51.754 13.728 51.754 12.719C51.754 11.71 52.368 10.921 53.289 10.921C54.341 10.921 54.649 11.886 54.649 12.456V12.763H52.324ZM54.078 12.368C54.078 11.973 53.903 11.403 53.245 11.403C52.631 11.403 52.368 11.973 52.324 12.368H54.078ZM57.762 14.21C57.587 14.298 57.236 14.386 56.797 14.386C55.789 14.386 55.174 13.728 55.174 12.719C55.174 11.711 55.876 10.965 56.929 10.965C57.279 10.965 57.587 11.053 57.762 11.14L57.631 11.579C57.499 11.491 57.28 11.403 56.929 11.403C56.183 11.403 55.745 11.973 55.745 12.675C55.745 13.421 56.227 13.903 56.885 13.903C57.235 13.903 57.455 13.816 57.631 13.728L57.762 14.21ZM61.183 13.421C61.183 13.771 61.183 14.079 61.227 14.298H60.701L60.657 13.772C60.525 14.035 60.131 14.386 59.561 14.386C59.034 14.386 58.421 14.079 58.421 12.939V11.009H59.034V12.807C59.034 13.421 59.254 13.86 59.78 13.86C60.175 13.86 60.482 13.596 60.57 13.29C60.613 13.202 60.613 13.114 60.613 12.982V10.965H61.227V13.421M62.192 12.061C62.192 11.667 62.192 11.36 62.148 11.053H62.674L62.718 11.71C62.85 11.272 63.245 11.009 63.639 11.009H63.815V11.579H63.595C63.157 11.579 62.894 11.886 62.806 12.325V14.386H62.192V12.061ZM64.736 10.438C64.516 10.438 64.341 10.263 64.341 10.044C64.341 9.824 64.516 9.649 64.736 9.649C64.955 9.649 65.13 9.824 65.13 10.044C65.13 10.263 64.999 10.438 64.736 10.438ZM65.043 14.342H64.473V11.052H65.087V14.342H65.043ZM66.753 10.263V11.053H67.631V11.491H66.753V13.29C66.753 13.684 66.885 13.947 67.192 13.947C67.367 13.947 67.455 13.947 67.542 13.904L67.587 14.342C67.455 14.386 67.28 14.43 67.06 14.43C66.797 14.43 66.578 14.342 66.403 14.167C66.227 13.991 66.183 13.684 66.183 13.29V11.49H65.657V11.052H66.183V10.438L66.753 10.262V10.263ZM68.595 11.053L69.297 12.983C69.385 13.202 69.473 13.465 69.517 13.64C69.56 13.465 69.648 13.202 69.736 12.939L70.394 11.009H71.008L70.087 13.377C69.648 14.517 69.385 15.087 68.947 15.439C68.639 15.702 68.377 15.789 68.201 15.833L68.069 15.351C68.201 15.307 68.42 15.219 68.595 15.044C68.771 14.912 68.946 14.693 69.078 14.386C69.122 14.342 69.122 14.298 69.122 14.254C69.122 14.211 69.122 14.167 69.078 14.123L67.85 11.097H68.595M48.552 20.395C48.815 20.57 49.209 20.702 49.604 20.702C50.218 20.702 50.569 20.395 50.569 19.912C50.569 19.474 50.306 19.254 49.692 18.992C48.946 18.728 48.464 18.333 48.464 17.675C48.464 16.974 49.078 16.447 49.955 16.447C50.438 16.447 50.745 16.535 50.964 16.667L50.788 17.149C50.657 17.061 50.35 16.929 49.911 16.929C49.297 16.929 49.034 17.325 49.034 17.632C49.034 18.07 49.297 18.289 49.955 18.509C50.745 18.816 51.095 19.167 51.095 19.869C51.095 20.57 50.569 21.184 49.516 21.184C49.078 21.184 48.596 21.052 48.332 20.877L48.552 20.395ZM52.63 17.061V17.851H53.508V18.29H52.631V20.044C52.631 20.439 52.762 20.702 53.069 20.702C53.245 20.702 53.333 20.702 53.42 20.658L53.464 21.097C53.333 21.14 53.157 21.184 52.938 21.184C52.675 21.184 52.455 21.097 52.28 20.921C52.105 20.746 52.06 20.439 52.06 20.044V18.246H51.534V17.807H52.061V17.193L52.631 17.061H52.63ZM56.49 20.351C56.49 20.658 56.49 20.921 56.534 21.141H56.008L55.964 20.746C55.789 21.009 55.438 21.228 54.955 21.228C54.297 21.228 53.947 20.746 53.947 20.263C53.947 19.473 54.648 19.035 55.92 19.035V18.948C55.92 18.684 55.833 18.158 55.175 18.202C54.868 18.202 54.561 18.29 54.297 18.465L54.166 18.07C54.429 17.895 54.824 17.807 55.262 17.807C56.272 17.807 56.534 18.509 56.534 19.167V20.351H56.49ZM55.92 19.474C55.262 19.474 54.517 19.561 54.517 20.219C54.517 20.614 54.78 20.789 55.087 20.789C55.525 20.789 55.789 20.526 55.877 20.219C55.877 20.176 55.92 20.088 55.92 20.044V19.474ZM57.455 18.728C57.455 18.378 57.455 18.114 57.411 17.851H57.938L57.982 18.377C58.157 18.07 58.508 17.763 59.078 17.763C59.517 17.763 60.262 18.026 60.262 19.167V21.14H59.648V19.254C59.648 18.728 59.428 18.289 58.903 18.289C58.508 18.289 58.201 18.553 58.113 18.903C58.069 18.991 58.069 19.079 58.069 19.167V21.14H57.455V18.728ZM64.078 16.316V20.307C64.078 20.614 64.078 20.921 64.122 21.141H63.596L63.552 20.571C63.377 20.921 62.982 21.228 62.456 21.228C61.666 21.228 61.052 20.57 61.052 19.561C61.052 18.465 61.754 17.807 62.543 17.807C63.069 17.807 63.376 18.027 63.552 18.29V16.316H64.078ZM63.464 19.166C63.464 19.079 63.464 18.991 63.42 18.904C63.333 18.509 63.026 18.202 62.543 18.202C61.929 18.202 61.534 18.728 61.534 19.474C61.534 20.132 61.885 20.702 62.499 20.702C62.894 20.702 63.245 20.439 63.376 20C63.42 19.912 63.42 19.825 63.42 19.737V19.167H63.464V19.166ZM67.411 20.351C67.411 20.658 67.411 20.921 67.455 21.141H66.929L66.885 20.746C66.71 21.009 66.359 21.228 65.876 21.228C65.218 21.228 64.867 20.746 64.867 20.263C64.867 19.473 65.569 19.035 66.841 19.035V18.948C66.841 18.684 66.753 18.158 66.096 18.202C65.788 18.202 65.481 18.29 65.218 18.465L65.087 18.07C65.35 17.895 65.745 17.807 66.183 17.807C67.192 17.807 67.455 18.509 67.455 19.167V20.351H67.411ZM66.797 19.474C66.139 19.474 65.394 19.561 65.394 20.219C65.394 20.614 65.657 20.789 65.964 20.789C66.403 20.789 66.666 20.526 66.754 20.219C66.754 20.176 66.797 20.088 66.797 20.044V19.474ZM68.377 18.86C68.377 18.465 68.377 18.158 68.333 17.851H68.859L68.903 18.509H68.947C69.078 18.07 69.473 17.807 69.867 17.807H70.043V18.377H69.823C69.385 18.377 69.123 18.684 69.035 19.123V21.184H68.42L68.377 18.86ZM73.376 16.316V20.307C73.376 20.614 73.376 20.921 73.42 21.141H72.894L72.85 20.571C72.675 20.921 72.28 21.228 71.71 21.228C70.92 21.228 70.306 20.57 70.306 19.561C70.306 18.465 70.964 17.807 71.798 17.807C72.324 17.807 72.631 18.027 72.806 18.29V16.316H73.376ZM72.806 19.166C72.806 19.079 72.806 18.991 72.763 18.904C72.675 18.509 72.323 18.202 71.885 18.202C71.271 18.202 70.92 18.728 70.92 19.474C70.92 20.132 71.271 20.702 71.885 20.702C72.28 20.702 72.675 20.439 72.763 20C72.763 19.912 72.806 19.825 72.806 19.737V19.167V19.166ZM74.298 20.526C74.473 20.658 74.78 20.746 75.088 20.746C75.526 20.746 75.701 20.526 75.701 20.263C75.701 19.956 75.526 19.825 75.087 19.649C74.473 19.429 74.21 19.123 74.21 18.729C74.21 18.202 74.649 17.763 75.35 17.763C75.701 17.763 75.965 17.851 76.14 17.983L76.008 18.421C75.877 18.333 75.658 18.246 75.35 18.246C75 18.246 74.824 18.465 74.824 18.684C74.824 18.947 74.999 19.079 75.438 19.254C76.008 19.474 76.315 19.737 76.315 20.264C76.315 20.834 75.877 21.272 75.087 21.272C74.737 21.272 74.385 21.184 74.167 21.052L74.297 20.526H74.298ZM81.754 21.009C81.534 21.096 81.096 21.229 80.526 21.229C79.254 21.229 78.245 20.395 78.245 18.904C78.245 17.456 79.21 16.491 80.657 16.491C81.227 16.491 81.578 16.623 81.754 16.711L81.622 17.193C81.402 17.105 81.096 17.017 80.701 17.017C79.605 17.017 78.903 17.719 78.903 18.904C78.903 20.044 79.561 20.746 80.657 20.746C81.008 20.746 81.403 20.658 81.622 20.57L81.754 21.009ZM83.728 21.228C82.85 21.228 82.148 20.57 82.148 19.518C82.148 18.421 82.894 17.763 83.771 17.763C84.736 17.763 85.351 18.465 85.351 19.43C85.351 20.658 84.517 21.228 83.728 21.228ZM83.728 20.746C84.298 20.746 84.736 20.219 84.736 19.474C84.736 18.904 84.473 18.202 83.728 18.202C83.026 18.202 82.718 18.86 82.718 19.474C82.763 20.219 83.158 20.746 83.728 20.746ZM88.86 20.22C88.86 20.57 88.86 20.877 88.903 21.097H88.377L88.333 20.57C88.201 20.833 87.806 21.184 87.236 21.184C86.71 21.184 86.096 20.877 86.096 19.737V17.807H86.71V19.605C86.71 20.219 86.885 20.658 87.456 20.658C87.85 20.658 88.113 20.395 88.245 20.088C88.289 20 88.289 19.912 88.289 19.781V17.763H88.903V20.219M89.868 18.728C89.868 18.378 89.868 18.114 89.824 17.851H90.35L90.394 18.377C90.569 18.07 90.92 17.763 91.491 17.763C91.929 17.763 92.675 18.026 92.675 19.167V21.14H92.061V19.254C92.061 18.728 91.841 18.289 91.315 18.289C90.92 18.289 90.613 18.553 90.525 18.903C90.482 18.991 90.482 19.079 90.482 19.167V21.14H89.868V18.728ZM96.008 21.009C95.832 21.096 95.525 21.184 95.043 21.184C94.034 21.184 93.42 20.526 93.42 19.518C93.42 18.508 94.122 17.763 95.174 17.763C95.525 17.763 95.832 17.851 96.008 17.939L95.876 18.377C95.745 18.29 95.526 18.202 95.175 18.202C94.429 18.202 93.99 18.772 93.99 19.474C93.99 20.219 94.473 20.702 95.13 20.702C95.482 20.702 95.7 20.614 95.876 20.526L96.008 21.009ZM96.973 17.237C96.753 17.237 96.578 17.061 96.578 16.842C96.578 16.622 96.754 16.447 96.973 16.447C97.193 16.447 97.368 16.623 97.368 16.842C97.368 17.062 97.236 17.237 96.973 17.237ZM97.28 21.14H96.666V17.85H97.28V21.14ZM98.903 16.316H98.289V21.141H98.903V16.316ZM45.482 18.947L10.262 30L0 2.061L36.973 0L45.482 18.947Z" fill="#D1D7E5"/>
<path d="M18.859 13.333C18.859 14.035 18.684 14.649 18.376 15.219C18.07 15.746 17.631 16.229 17.061 16.579C16.491 16.929 15.789 17.193 14.999 17.369C14.209 17.544 13.333 17.632 12.324 17.632H11.622V21.228H7.06104V9.254H12.411C14.429 9.254 16.008 9.605 17.149 10.264C18.289 10.921 18.859 11.974 18.859 13.334V13.333ZM14.473 13.377C14.473 12.325 13.683 11.798 12.148 11.798H11.578V15H12.105C12.85 15 13.465 14.868 13.859 14.605C14.254 14.386 14.473 13.947 14.473 13.377ZM30.175 21.228C29.473 21.36 28.683 21.448 27.762 21.448C26.49 21.448 25.35 21.316 24.385 21.008C23.376 20.702 22.543 20.308 21.841 19.781C21.14 19.255 20.613 18.597 20.262 17.851C19.912 17.061 19.736 16.228 19.736 15.307C19.736 14.387 19.911 13.553 20.306 12.763C20.701 12.018 21.227 11.36 21.929 10.79C22.631 10.263 23.464 9.825 24.429 9.518C25.394 9.211 26.447 9.079 27.587 9.079C28.464 9.079 29.297 9.123 30.043 9.255C30.789 9.43 30.789 9.43 31.359 9.649V12.851C30.92 12.588 30.394 12.369 29.824 12.237C29.254 12.062 28.64 11.974 28.025 11.974C26.973 11.974 26.139 12.281 25.482 12.807C24.824 13.377 24.517 14.167 24.517 15.263C24.517 15.79 24.605 16.273 24.824 16.711C25.044 17.105 25.306 17.456 25.657 17.72C26.008 17.983 26.403 18.202 26.885 18.334C27.368 18.465 27.85 18.553 28.376 18.553C28.903 18.553 29.473 18.509 29.999 18.377C30.525 18.246 31.096 18.114 31.666 17.851V20.877C30.964 21.053 30.876 21.097 30.175 21.228ZM38.157 9.254H33.552V21.272H38.157V9.254ZM38.64 5.483C38.64 6.273 38.376 6.93 37.85 7.369C37.324 7.807 36.666 8.07 35.876 8.07C35.086 8.07 34.429 7.851 33.902 7.369C33.376 6.93 33.113 6.272 33.113 5.483C33.113 4.649 33.376 4.035 33.903 3.553C34.429 3.07 35.087 2.851 35.876 2.851C36.666 2.851 37.323 3.071 37.85 3.553C38.376 3.991 38.64 4.649 38.64 5.483Z" fill="white"/>
<path d="M99.034 10.745C99.034 11.491 98.4201 12.105 97.6311 12.105C96.8411 12.105 96.2271 11.491 96.2271 10.745C96.2271 9.99999 96.8411 9.38499 97.6311 9.38499C98.4211 9.38499 99.034 9.99999 99.034 10.745ZM96.666 10.745C96.666 11.315 97.1041 11.755 97.6311 11.755C98.2011 11.755 98.596 11.315 98.596 10.745C98.596 10.175 98.1571 9.73699 97.5861 9.73699C97.0611 9.73699 96.666 10.175 96.666 10.745ZM97.456 11.403H97.0611V10.131C97.1481 10.131 97.3681 10.088 97.6311 10.088C97.8941 10.088 98.0251 10.131 98.1131 10.175C98.2011 10.219 98.245 10.307 98.245 10.438C98.245 10.57 98.113 10.658 97.938 10.701C98.069 10.745 98.158 10.833 98.201 11.008C98.245 11.184 98.245 11.272 98.289 11.316H97.8501C97.8061 11.272 97.806 11.14 97.762 11.052C97.718 10.921 97.675 10.877 97.543 10.877H97.412V11.403H97.455H97.456ZM97.499 10.701H97.6311C97.7621 10.701 97.8511 10.658 97.8511 10.57C97.8511 10.482 97.7621 10.395 97.6311 10.395H97.499V10.701Z" fill="#D1D7E5"/>
</svg>
