<svg width="50" height="18" viewBox="0 0 50 18" fill="none" xmlns="http://www.w3.org/2000/svg">
<path fill-rule="evenodd" clip-rule="evenodd" d="M39.4251 1.79184L43.4823 1.05211V16.9006H39.4251V1.79283V1.79184ZM45.3527 1.79184V16.9016H49.4149V1.0531L45.3527 1.79184V1.79184ZM33.6418 16.9016H37.704V5.30854H33.6428V16.9016H33.6418ZM6.80684 6.94907C6.29392 6.91427 5.1048 6.83672 5.1048 5.748C5.1048 4.43558 6.81586 4.43558 7.458 4.43558C8.58602 4.43558 10.0476 4.77362 11.0905 5.09179C11.0905 5.09179 11.6735 5.30058 12.1684 5.51435L12.2145 5.52727V1.93203L12.1514 1.91214C10.9192 1.47467 9.48663 1.05211 6.83188 1.05211C2.25471 1.05211 0.632812 3.76445 0.632812 6.08804C0.632812 7.42731 1.19682 10.5801 6.44018 10.944C6.88498 10.9708 8.06308 11.0395 8.06308 12.165C8.06308 13.0926 7.09836 13.6404 5.47446 13.6404C3.69428 13.6404 1.9682 13.1791 0.919325 12.7406V16.4443C2.48913 16.8618 4.25929 17.0716 6.33299 17.0716C10.809 17.0716 12.8136 14.5064 12.8136 11.9621C12.8136 9.07877 10.5696 7.20559 6.80684 6.94907V6.94907ZM31.3557 5.13951C27.602 5.26181 25.6966 6.97492 25.6966 10.3793V16.9016H29.7919V11.5823C29.7919 9.54409 30.0544 8.66914 32.4326 8.58661V5.19917C32.0319 5.11366 31.3557 5.13951 31.3557 5.13951ZM20.338 5.29561C20.2478 5.52727 19.5977 7.39549 18.0249 9.33231V1.05211L13.8344 1.89524V16.9016H18.0249V12.2624C19.239 14.1137 19.8381 16.9016 19.8381 16.9016H24.8571C24.3612 14.8017 22.1893 10.9311 22.1893 10.9311C24.1378 8.41759 24.9943 5.74005 25.1306 5.29561H20.338V5.29561ZM35.6734 4.19695C36.7794 4.19695 37.676 3.28621 37.676 2.1627C37.676 1.03819 36.7794 0.125458 35.6724 0.125458C34.5684 0.125458 33.6728 1.03819 33.6728 2.1627C33.6728 3.28621 34.5684 4.19695 35.6734 4.19695Z" fill="#D1D7E5"/>
</svg>
