<svg width="54" height="30" viewBox="0 0 54 30" fill="none" xmlns="http://www.w3.org/2000/svg">
<path d="M31.3629 10.798L31.1279 12.283H33.6579L33.3489 14.235H30.8189L30.2679 17.718H27.9609L29.3669 8.845H34.4629L34.1519 10.798H31.3619H31.3629ZM36.6949 17.718H34.3889L35.7939 8.845H38.1009L36.6949 17.718ZM41.8159 10.798L41.5809 12.283H44.1809L43.8729 14.235H41.2719L41.0289 15.765H43.7709L43.4619 17.718H38.4119L39.8189 8.845H44.8669L44.5579 10.798H41.8159ZM48.1899 10.798H48.7319C50.2139 10.798 51.1199 11.693 50.8669 13.282C50.5949 15.01 49.2979 15.764 47.9219 15.764H47.4039L48.1899 10.798ZM44.7879 17.718H48.0599C50.5179 17.718 52.8729 15.778 53.2699 13.282C53.6649 10.788 51.9359 8.845 49.4639 8.845H46.1939L44.7879 17.718ZM18.5999 24.105C19.2249 24.105 19.5179 24.602 19.4329 25.192C19.3469 25.802 18.9159 26.271 18.2929 26.271C17.6659 26.271 17.3699 25.801 17.4569 25.192C17.5409 24.602 17.9749 24.105 18.5999 24.105ZM15.6279 27.595H17.1649L17.2409 27.06H17.2579C17.4679 27.539 17.9629 27.755 18.4679 27.755C19.7609 27.755 20.8249 26.573 21.0229 25.183C21.2189 23.803 20.5009 22.622 19.2169 22.622C18.7189 22.622 18.1729 22.827 17.7849 23.252L18.2769 19.807H16.7389L15.6279 27.595Z" fill="#D1D7E5"/>
<path d="M21.162 22.786H22.934L23.74 25.253L25.223 22.786H26.971L22.473 30H20.749L22.664 26.942L21.162 22.786ZM35.067 27.596L37.437 19.781H39.551L37.183 27.596H35.066H35.067ZM34.149 19.78L32.246 23.096C31.763 23.965 31.479 24.401 31.344 24.951H31.314C31.347 24.254 31.253 23.401 31.242 22.918L31.034 19.781H27.473L27.437 19.991C28.352 19.991 28.892 20.453 29.04 21.392L29.734 27.596H31.926L36.358 19.781H34.148L34.149 19.78ZM50.585 27.592L50.525 26.43L47.885 26.427L47.345 27.592H45.049L49.211 19.794H52.031L52.733 27.592H50.585ZM50.342 22.981C50.317 22.405 50.299 21.621 50.337 21.148H50.307C50.178 21.536 49.625 22.7 49.379 23.273L48.595 24.986H50.449L50.342 22.981ZM41.761 27.821C40.268 27.821 39.277 27.346 38.57 26.923L39.576 25.383C40.211 25.738 40.712 26.15 41.858 26.15C42.228 26.15 42.584 26.053 42.785 25.704C43.081 25.195 42.717 24.922 41.891 24.456L41.482 24.188C40.257 23.352 39.728 22.559 40.306 21.172C40.674 20.282 41.646 19.611 43.253 19.611C44.359 19.611 45.397 20.089 46.002 20.558L44.842 21.915C44.252 21.437 43.765 21.196 43.204 21.196C42.758 21.196 42.418 21.368 42.302 21.601C42.083 22.038 42.373 22.335 43.017 22.733L43.502 23.043C44.988 23.98 45.342 24.963 44.969 25.884C44.33 27.467 43.073 27.821 41.761 27.821ZM13.071 10.798L12.837 12.283H15.437L15.129 14.235H12.528L12.285 15.765H15.029L14.718 17.718H9.669L11.075 8.845H16.124L15.814 10.798H13.071ZM19.476 10.61H19.7C20.453 10.61 21.278 10.752 21.125 11.717C20.973 12.682 20.103 12.823 19.35 12.823H19.126L19.476 10.611V10.61ZM21.209 14.082C22.505 13.859 23.355 12.799 23.549 11.576C23.849 9.681 22.65 8.846 20.897 8.846H17.448L16.044 17.719H18.352L18.891 14.306H18.915L20.551 17.719H23.423L21.209 14.082ZM26.245 17.718H23.936L25.342 8.845H27.648L26.244 17.718H26.245ZM13.663 0L10.032 5.78L5.096 14.138L4.806 11.022L4.581 7.635H0.046L0 7.902C1.164 7.902 1.852 8.488 2.044 9.687L2.924 17.585L2.93 17.568L2.942 17.683H6.06L11.63 6.415L15.011 0H13.664H13.663Z" fill="#D1D7E5"/>
<path d="M5.85104 9.513H6.11404L9.39403 3.958L9.39504 3.698H1.93604V3.963L5.53104 5.493L5.85204 9.513H5.85104Z" fill="#F2F3F4"/>
</svg>
