<svg width="202" height="24" viewBox="0 0 202 24" fill="none" xmlns="http://www.w3.org/2000/svg">
<path d="M61.8332 13.3646H48.6164V9.52779H64.6048V4.2312H40.9526V23.9578H48.6164V18.6612H61.8332V13.3646Z" fill="#FF267E"/>
<path d="M103.841 17.3691L96.8278 4.2312H88.0298L99.4219 23.9578H108.151L119.533 4.2312H110.863L103.841 17.3691Z" fill="#FF267E"/>
<path d="M144.102 13.9367C145.855 13.2571 147.029 11.5754 147.061 9.69546C147.061 6.4603 144.329 4.2312 138.954 4.2312H121.604V23.9578H139.358C145.128 23.9578 147.692 21.6794 147.692 18.3752C147.653 16.5307 146.538 14.8638 144.102 13.9367ZM129.071 9.00503H137.622C137.72 8.98531 137.819 8.97544 137.919 8.97544C138.747 8.97544 139.428 9.657 139.428 10.4845C139.428 11.3121 138.747 11.9936 137.919 11.9936C137.819 11.9936 137.72 11.9837 137.622 11.964H129.071V9.00503ZM138.243 19.2629H129.071V16.3039H138.243C138.341 16.2841 138.441 16.2743 138.54 16.2743C139.369 16.2743 140.049 16.9558 140.049 17.7834C140.049 18.6109 139.369 19.2924 138.54 19.2924C138.441 19.2924 138.341 19.2826 138.243 19.2629Z" fill="#FF267E"/>
<path d="M158.956 16.2348H172.153V11.9542H158.956V9.52779H173.544V4.2312H151.292V23.9578H173.889V18.6612H158.956V16.2348Z" fill="#FF267E"/>
<path d="M177.056 4.2312V9.52779H185.656V23.9578H193.409V9.52779H202V4.2312H177.056Z" fill="#FF267E"/>
<path d="M73.5106 4.2312L62.1284 23.9578H70.2755L71.8142 21.0481H83.9855L85.5241 23.9578H94.0066L82.6145 4.2312H73.5106ZM74.497 15.9291L77.8604 9.5771L81.2237 15.9291H74.497Z" fill="#FF267E"/>
<path d="M0 11.9644L6.79581 23.9581H15.5248L8.71915 11.9644H0Z" fill="#FF267E"/>
<path d="M22.3202 11.9644L15.5244 23.9581H24.2436L31.0394 11.9644H22.3202Z" fill="#FF267E"/>
<path d="M15.5254 0L8.71973 11.9642H22.3212L15.5254 0Z" fill="#FF267E"/>
</svg>
