<svg width="46" height="40" viewBox="0 0 46 40" fill="none" xmlns="http://www.w3.org/2000/svg">
<path d="M23 38C34.598 38 44 29.9411 44 20C44 10.0589 34.598 2 23 2C11.402 2 2 10.0589 2 20C2 29.9411 11.402 38 23 38Z" stroke="#FF267E" stroke-width="3" stroke-linecap="round" stroke-linejoin="round"/>
<path fill-rule="evenodd" clip-rule="evenodd" d="M23 2C34.5982 2 44 10.0587 44 19.999C44 29.9393 34.5982 37.9979 23 37.9979C11.4018 37.9979 2 29.9417 2 20C2 10.0583 11.4022 2.00103 23 2.00103" fill="#000055"/>
<path d="M21.337 28.364V21.7301H14.5757V18.413H21.337V11.7493H24.7023V18.413H31.4335V21.7301H24.7023V28.364H21.337Z" fill="#FF267E"/>
</svg>
