<svg width="44" height="44" viewBox="0 0 44 44" fill="none" xmlns="http://www.w3.org/2000/svg">
<path d="M22 43C33.598 43 43 33.598 43 22C43 10.402 33.598 1 22 1C10.402 1 1 10.402 1 22C1 33.598 10.402 43 22 43Z" stroke="#D1D7E5" stroke-width="2"/>
<path d="M15.6148 27H13.6398V19.385L11.2808 20.116V18.51L15.4028 17.033H15.6148V27ZM25.3428 19.692C25.3428 20.175 25.2218 20.604 24.9798 20.977C24.7388 21.351 24.4058 21.65 23.9818 21.873C24.4648 22.105 24.8478 22.427 25.1308 22.837C25.4128 23.242 25.5548 23.721 25.5548 24.273C25.5548 25.157 25.2538 25.856 24.6518 26.371C24.0508 26.881 23.2318 27.137 22.1978 27.137C21.1638 27.137 20.3428 26.879 19.7378 26.364C19.1308 25.849 18.8278 25.152 18.8278 24.273C18.8278 23.721 18.9688 23.24 19.2518 22.83C19.5348 22.42 19.9148 22.1 20.3938 21.873C19.9698 21.65 19.6368 21.351 19.3958 20.977C19.1578 20.604 19.0398 20.175 19.0398 19.692C19.0398 18.845 19.3228 18.17 19.8878 17.669C20.4528 17.163 21.2208 16.91 22.1908 16.91C23.1578 16.91 23.9228 17.16 24.4878 17.662C25.0578 18.159 25.3428 18.836 25.3428 19.692ZM23.5728 24.129C23.5728 23.696 23.4468 23.349 23.1958 23.089C22.9458 22.83 22.6078 22.7 22.1848 22.7C21.7648 22.7 21.4298 22.83 21.1798 23.09C20.9288 23.345 20.8038 23.691 20.8038 24.129C20.8038 24.553 20.9268 24.894 21.1728 25.154C21.4188 25.414 21.7608 25.544 22.1978 25.544C22.6268 25.544 22.9618 25.419 23.2028 25.168C23.4488 24.918 23.5728 24.571 23.5728 24.128V24.129ZM23.3668 19.789C23.3668 19.401 23.2648 19.091 23.0598 18.859C22.8548 18.621 22.5648 18.503 22.1908 18.503C21.8218 18.503 21.5348 18.617 21.3308 18.845C21.1248 19.073 21.0228 19.387 21.0228 19.788C21.0228 20.185 21.1248 20.504 21.3298 20.745C21.5348 20.987 21.8248 21.107 22.1978 21.107C22.5718 21.107 22.8588 20.987 23.0598 20.745C23.2648 20.504 23.3668 20.185 23.3668 19.788V19.789ZM30.9618 21.429H33.4298V23.213H30.9618V26.002H29.0818V23.212H26.6068V21.43H29.0818V18.757H30.9618V21.43V21.429Z" fill="#D1D7E5"/>
</svg>
