<svg width="32" height="25" viewBox="0 0 32 25" fill="none" xmlns="http://www.w3.org/2000/svg">
<path d="M6.25425 24.2036V22.6436C6.25425 22.046 5.88759 21.6553 5.25847 21.6553C4.94491 21.6553 4.60431 21.7597 4.36788 22.0977C4.18456 21.8114 3.92309 21.6553 3.52939 21.6553C3.26792 21.6553 3.00545 21.7338 2.79608 22.0202V21.708H2.24609V24.2036H2.79708V22.8255C2.79708 22.3841 3.0325 22.1753 3.39815 22.1753C3.76581 22.1753 3.94913 22.4099 3.94913 22.8255V24.2036H4.49912V22.8255C4.49912 22.3841 4.76058 22.1753 5.10119 22.1753C5.46885 22.1753 5.65218 22.4099 5.65218 22.8255V24.2036H6.25425V24.2036ZM14.4018 21.708H13.5102V20.9533H12.9612V21.708H12.4633V22.2021H12.9612V23.3455C12.9612 23.9182 13.1966 24.2553 13.8258 24.2553C14.0612 24.2553 14.3227 24.1777 14.507 24.0733L14.3497 23.606C14.1924 23.7094 14.0091 23.7353 13.8779 23.7353C13.6154 23.7353 13.5112 23.5792 13.5112 23.3197V22.2021H14.4018V21.708V21.708ZM19.0651 21.6553C18.7506 21.6553 18.5412 21.8114 18.41 22.0202V21.708H17.859V24.2036H18.41V22.8007C18.41 22.3851 18.5933 22.1504 18.9339 22.1504C19.0391 22.1504 19.1693 22.1763 19.2745 22.2031L19.4318 21.6831C19.3266 21.6563 19.1693 21.6563 19.0651 21.6563V21.6553ZM12.0175 21.9158C11.7561 21.7338 11.3894 21.6553 10.9957 21.6553C10.3676 21.6553 9.94785 21.9675 9.94785 22.4616C9.94785 22.8782 10.2624 23.1119 10.8124 23.1894L11.0749 23.2153C11.3634 23.268 11.5197 23.3455 11.5197 23.4758C11.5197 23.6577 11.3103 23.788 10.9436 23.788C10.577 23.788 10.2885 23.6577 10.1051 23.5275L9.84366 23.9441C10.1312 24.1519 10.5249 24.2553 10.9176 24.2553C11.6509 24.2553 12.0696 23.9172 12.0696 23.4499C12.0696 23.0075 11.729 22.7738 11.2061 22.6953L10.9436 22.6694C10.7082 22.6436 10.5249 22.5919 10.5249 22.4358C10.5249 22.2538 10.7082 22.1494 10.9957 22.1494C11.3103 22.1494 11.6248 22.2797 11.7821 22.3582L12.0175 21.9158ZM26.6356 21.6553C26.3221 21.6553 26.1117 21.8114 25.9805 22.0202V21.708H25.4305V24.2036H25.9815V22.8007C25.9815 22.3851 26.1648 22.1504 26.5054 22.1504C26.6096 22.1504 26.7408 22.1763 26.846 22.2031L27.0023 21.6831C26.8981 21.6563 26.7408 21.6563 26.6356 21.6563V21.6553ZM19.6151 22.9558C19.6151 23.7094 20.139 24.2553 20.9515 24.2553C21.3182 24.2553 21.5796 24.1777 21.8421 23.9699L21.5796 23.5275C21.3702 23.6836 21.1609 23.7621 20.9244 23.7621C20.4797 23.7621 20.1651 23.4499 20.1651 22.9558C20.1651 22.4885 20.4797 22.1753 20.9244 22.1504C21.1609 22.1504 21.3702 22.228 21.5796 22.3841L21.8421 21.9416C21.5796 21.7328 21.3182 21.6553 20.9505 21.6553C20.139 21.6553 19.6151 22.2021 19.6151 22.9558V22.9558ZM24.6972 22.9558V21.707H24.1472V22.0192C23.9639 21.7845 23.7014 21.6543 23.3618 21.6543C22.6535 21.6543 22.1036 22.2011 22.1036 22.9548C22.1036 23.7084 22.6545 24.2543 23.3618 24.2543C23.7285 24.2543 23.9899 24.125 24.1472 23.8904V24.2026H24.6982V22.9548L24.6972 22.9558ZM22.6806 22.9558C22.6806 22.5133 22.9681 22.1504 23.4399 22.1504C23.8847 22.1504 24.1993 22.4885 24.1993 22.9558C24.1993 23.3972 23.8857 23.7611 23.4399 23.7611C22.9691 23.7353 22.6806 23.3972 22.6806 22.9558ZM16.1048 21.6553C15.3705 21.6553 14.8476 22.1753 14.8476 22.9558C14.8476 23.7353 15.3705 24.2553 16.1299 24.2553C16.4975 24.2553 16.8642 24.1519 17.1517 23.9172L16.8912 23.5275C16.6809 23.6836 16.4194 23.788 16.1569 23.788C15.8163 23.788 15.4757 23.6319 15.3976 23.1894H17.2569V22.9816C17.2839 22.1763 16.8121 21.6553 16.1048 21.6553V21.6553ZM16.1048 22.1236C16.4455 22.1236 16.6809 22.3324 16.733 22.7221H15.4236C15.4757 22.3841 15.7121 22.1236 16.1048 22.1236ZM29.7532 22.9558V20.7197H29.2032V22.0202C29.0199 21.7855 28.7584 21.6553 28.4168 21.6553C27.7096 21.6553 27.1596 22.2021 27.1596 22.9558C27.1596 23.7094 27.7106 24.2553 28.4168 24.2553C28.7845 24.2553 29.046 24.126 29.2032 23.8914V24.2036H29.7542V22.9558H29.7532ZM27.7366 22.9558C27.7366 22.5133 28.0241 22.1504 28.496 22.1504C28.9418 22.1504 29.2553 22.4885 29.2553 22.9558C29.2553 23.3972 28.9418 23.7611 28.496 23.7611C28.0251 23.7353 27.7366 23.3972 27.7366 22.9558ZM9.34577 22.9558V21.707H8.79479V22.0192C8.61246 21.7845 8.34999 21.6543 8.00939 21.6543C7.30212 21.6543 6.75214 22.2011 6.75214 22.9548C6.75214 23.7084 7.30312 24.2543 8.00939 24.2543C8.37604 24.2543 8.63851 24.125 8.79579 23.8904V24.2026H9.34577V22.9548V22.9558ZM7.30212 22.9558C7.30212 22.5133 7.59064 22.1504 8.06148 22.1504C8.50727 22.1504 8.82184 22.4885 8.82184 22.9558C8.82184 23.3972 8.50727 23.7611 8.06148 23.7611C7.59064 23.7353 7.30212 23.3972 7.30212 22.9558Z" fill="#D1D7E5"/>
<path d="M20.0867 2.75339H11.834V17.4694H20.0867V2.75438V2.75339Z" fill="#F2F3F4"/>
<path d="M12.358 10.1119C12.358 7.12115 13.7725 4.46946 15.9474 2.75436C14.3496 1.50557 12.332 0.751923 10.131 0.751923C4.91773 0.751923 0.700195 4.93776 0.700195 10.1119C0.700195 15.286 4.91773 19.4719 10.131 19.4719C12.332 19.4719 14.3486 18.7182 15.9474 17.4694C13.7735 15.7792 12.358 13.1016 12.358 10.1119Z" fill="#D1D7E5"/>
<path d="M31.2199 10.1119C31.2199 15.286 27.0023 19.4719 21.789 19.4719C19.5881 19.4719 17.5715 18.7182 15.9736 17.4694C18.1736 15.7533 19.562 13.1016 19.562 10.1119C19.562 7.12115 18.1475 4.46946 15.9736 2.75436C17.5715 1.50557 19.5881 0.751923 21.789 0.751923C27.0023 0.751923 31.2199 4.96361 31.2199 10.1119Z" fill="white"/>
</svg>
