<svg width="43" height="15" viewBox="0 0 43 15" fill="none" xmlns="http://www.w3.org/2000/svg">
<path d="M27.8326 5.76735L28.0099 5.86479C29.9834 6.80237 30.8389 7.95771 30.8389 9.47395C30.8389 12.2161 28.5358 14.0207 25.0486 14.0207C23.5359 14.0207 22.0873 13.6598 21.2979 13.2989L21.7587 10.34L22.2195 10.5567C23.3375 11.0618 24.0618 11.2785 25.3782 11.2785C26.2998 11.2785 27.3517 10.845 27.3517 9.97904C27.3517 9.40137 26.957 8.96787 25.6406 8.31862C24.3253 7.66937 22.6794 6.65821 22.6794 4.70946C22.6794 2.11046 25.0486 0.305878 28.3395 0.305878C29.6548 0.305878 30.7077 0.594214 31.3649 0.883544L30.8389 3.69929L30.5103 3.55413C29.9183 3.26579 29.1279 3.04904 28.0099 3.04904C26.6935 3.04904 26.1015 3.62671 26.1015 4.20437C26.1015 4.82081 26.7526 5.17676 27.8316 5.76735H27.8326ZM18.2054 0.739376H21.4952L19.4556 13.7324H16.0996L18.2054 0.739376Z" fill="#D1D7E5"/>
<path fill-rule="evenodd" clip-rule="evenodd" d="M39.5904 0.73938H37.0248C36.2344 0.73938 35.6424 0.811961 35.3138 1.67796L30.377 13.7324H33.9303L34.5885 11.5669H38.8L39.1947 13.7324H42.3533L39.5894 0.73938H39.5904ZM35.5111 9.47396V9.40138C35.7746 8.67954 36.8275 5.57546 36.8275 5.57546C36.8275 5.57546 37.0899 4.78105 37.2883 4.27596L37.4856 5.50388C37.4856 5.50388 38.1428 8.75212 38.2751 9.47296H35.5101L35.5111 9.47396Z" fill="#D1D7E5"/>
<path d="M13.4018 0.811961H16.9551L11.6256 13.805H8.07125L5.1921 2.5897C4.50989 2.1562 3.76956 1.76844 2.99618 1.44332L0.898438 0.73938H7.01937C7.74266 0.73938 8.33472 0.956127 8.53207 1.82213L9.59396 7.3353L9.71618 7.88513C9.70016 7.85828 9.69214 7.83144 9.68312 7.80459L9.71618 7.95771L10.0458 9.83388L13.4018 0.810967V0.811961Z" fill="#D1D7E5"/>
</svg>
